<?xml version="1.0" standalone="no"?><!DOCTYPE svg PUBLIC "-//W3C//DTD SVG 1.1//EN" "http://www.w3.org/Graphics/SVG/1.1/DTD/svg11.dtd"><svg t="1548330244630" class="icon" style="" viewBox="0 0 1024 1024" version="1.1" xmlns="http://www.w3.org/2000/svg" p-id="3281" xmlns:xlink="http://www.w3.org/1999/xlink" width="200" height="200"><defs><style type="text/css"></style></defs><path d="M0 0m73.142857 0l877.714286 0q73.142857 0 73.142857 73.142857l0 877.714286q0 73.142857-73.142857 73.142857l-877.714286 0q-73.142857 0-73.142857-73.142857l0-877.714286q0-73.142857 73.142857-73.142857Z" fill="#2A5696" p-id="3282"></path><path d="M851.529143 265.344c1.718857-18.011429-12.032-32.073143-29.952-30.336-82.688-1.389714-165.632 0-248.649143-0.347429V171.227429h-45.824C408.32 192.731429 289.444571 213.522286 170.660571 234.678857v555.117714c118.107429 21.156571 236.288 41.252571 354.377143 63.524572h48.566857V789.814857c77.476571 0 154.971429 0 232.448 0.365714 13.056-0.713143 27.904 0.347429 39.259429-7.789714 8.96-14.08 6.582857-32.073143 7.588571-47.963428-1.371429-156.598857 0.347429-312.832-1.371428-469.065143z m-422.217143 354.761143c-13.056 6.729143-32.347429-0.347429-47.542857 0.694857-10.313143-52.516571-22.345143-104.777143-31.305143-157.275429-8.96 51.108571-20.992 101.888-31.323429 153.088-14.848-0.694857-29.952-1.755429-44.8-2.797714-13.056-69.814857-27.904-138.934857-39.936-209.097143 13.056-0.713143 26.532571-1.060571 39.936-1.755428 7.936 50.413714 16.896 100.845714 24.137143 151.259428l33.042286-155.538285c14.848-0.694857 29.257143-1.389714 44.105143-2.450286a12985.179429 12985.179429 0 0 0 32 160.438857c8.96-55.04 18.614857-110.025143 27.904-165.065143 15.542857-0.694857 30.976-1.408 46.518857-2.450286-18.267429 76.8-33.792 154.404571-52.736 230.948572z m399.524571 146.011428H573.257143V702.592h201.472v-31.707429H573.257143v-39.862857h201.472v-31.707428H573.257143v-39.862857h201.472v-31.707429H573.257143v-39.844571h201.472v-31.725715H573.257143v-39.131428h201.472v-31.725715H573.257143v-39.497142h201.472V314.093714H573.257143V258.358857h255.579428v507.757714z" fill="#FFFFFF" p-id="3283"></path></svg>