<?xml version="1.0" standalone="no"?><!DOCTYPE svg PUBLIC "-//W3C//DTD SVG 1.1//EN" "http://www.w3.org/Graphics/SVG/1.1/DTD/svg11.dtd"><svg t="1550907955140" class="icon" style="" viewBox="0 0 1024 1024" version="1.1" xmlns="http://www.w3.org/2000/svg" p-id="3677" xmlns:xlink="http://www.w3.org/1999/xlink" width="200" height="200"><defs><style type="text/css"></style></defs><path d="M748.307692 590.769231c0.078769 65.260308 51.475692 118.153846 114.924308 118.153846H1024v-236.307692h-160.768c-63.409231 0-114.845538 52.893538-114.924308 118.153846z m196.923077-0.078769A78.926769 78.926769 0 0 1 866.461538 669.538462c-43.480615 0-78.769231-35.367385-78.76923-78.769231 0-43.480615 35.367385-78.769231 78.690461-78.769231 43.480615 0 78.769231 35.367385 78.769231 78.690462H945.230769z" fill="#7F8FA4" p-id="3678"></path><path d="M954.249846 204.878769H69.710769A108.701538 108.701538 0 0 1 0 178.491077v768.787692C0 989.538462 31.350154 1024 69.750154 1024H954.289231c38.4 0 69.750154-34.422154 69.750154-76.760615V768h-162.89477c-89.954462-0.078769-162.855385-80.305231-162.934153-179.239385 0.118154-98.973538 73.019077-179.121231 162.934153-179.2H1024V281.639385c0-42.377846-31.350154-76.8-69.750154-76.8M69.710769 0C40.290462 0.157538 14.099692 46.237538 4.332308 76.8l903.364923 0.078769c38.439385 0 78.336 5.001846 78.336 47.261539v33.516307c17.329231 3.938462 24.418462 18.825846 38.006154 30.089847V76.878769C1024 34.500923 992.649846 0 954.249846 0H69.710769z" fill="#7F8FA4" p-id="3679"></path><path d="M945.230769 157.538462v-19.692308c0-10.791385-10.594462-19.692308-23.709538-19.692308H0c9.806769 22.843077 35.918769 39.384615 66.835692 39.384616H945.230769" fill="#7F8FA4" p-id="3680"></path></svg>