<?xml version="1.0" standalone="no"?><!DOCTYPE svg PUBLIC "-//W3C//DTD SVG 1.1//EN" "http://www.w3.org/Graphics/SVG/1.1/DTD/svg11.dtd"><svg t="1548224154176" class="icon" style="" viewBox="0 0 1024 1024" version="1.1" xmlns="http://www.w3.org/2000/svg" p-id="5597" xmlns:xlink="http://www.w3.org/1999/xlink" width="200" height="200"><defs><style type="text/css"></style></defs><path d="M0 0m73.142857 0l877.714286 0q73.142857 0 73.142857 73.142857l0 877.714286q0 73.142857-73.142857 73.142857l-877.714286 0q-73.142857 0-73.142857-73.142857l0-877.714286q0-73.142857 73.142857-73.142857Z" fill="#D9001B" p-id="5598"></path><path d="M575.012571 716.8v47.268571h257.316572V254.683429H575.012571v430.537142h225.810286V716.8H575.012571z m-47.908571-546.011429h46.317714v63.469715c82.706286 0.457143 165.412571-0.914286 248.576 0.457143a27.062857 27.062857 0 0 1 30.061715 30.061714c1.28 156.233143 0 312.539429 0.749714 468.772571-0.731429 16.018286 1.517714 33.773714-7.497143 47.981715-11.373714 8.265143-25.965714 7.497143-39.186286 7.497142H573.586286v63.469715h-48.566857c-117.979429-21.723429-236.16-41.947429-354.358858-63.158857V234.422857c118.802286-21.266286 237.659429-41.947429 356.461715-63.597714z m-235.154286 208.274286a13902.628571 13902.628571 0 0 0 0 239.506286l44.361143 3.712v-87.68c18.176 0.676571 37.449143 1.828571 54.198857-6.875429 47.158857-23.350857 55.570286-95.232 23.771429-134.4-33.645714-30.354286-82.176-12.379429-122.331429-14.262857z m305.572572 174.994286v-31.561143h203.300571v31.579429H597.522286z m0 54.253714v-31.561143h203.300571v31.561143H597.522286z m0 54.253714v-31.579428h203.300571v31.579428H597.522286zM333.604571 421.997714c14.208-0.676571 31.890286-3.364571 41.472 10.313143 7.899429 15.122286 8.265143 33.060571 0.969143 48.457143-8.228571 14.957714-26.88 13.750857-41.325714 15.469714-1.499429-24.722286-1.353143-49.444571-1.115429-74.24z m424.466286 1.426286a55.734857 55.734857 0 0 1-32.054857-12.982857c-17.609143 3.931429-34.852571 9.435429-51.492571 16.420571-13.476571 23.826286-25.965714 35.986286-36.845715 35.986286a11.556571 11.556571 0 0 1-6.509714-1.700571 12.854857 12.854857 0 0 1-7.497143-11.739429c0-3.876571 0.914286-14.939429 42.020572-32.493714 9.325714-17.152 17.042286-35.163429 22.966857-53.76-5.229714-10.386286-16.457143-35.931429-8.667429-48.932572a13.714286 13.714286 0 0 1 13.385143-6.948571c4.443429 0.054857 8.594286 2.121143 11.318857 5.595428 5.613714 7.478857 5.156571 24.283429-2.176 48.548572a130.340571 130.340571 0 0 0 27.026286 34.742857c8.96-1.828571 18.102857-2.852571 27.245714-2.998857 20.370286 0.457143 23.424 9.947429 22.985143 15.616 0 14.939429-14.299429 14.939429-21.632 14.939428l-0.073143-0.292571z m-122.697143 27.849143l1.481143-0.365714c6.4-1.846857 11.977143-5.76 15.872-11.136-6.765714 2.121143-12.781714 6.107429-17.371428 11.52z m61.897143-132.498286h-1.408a2.925714 2.925714 0 0 0-1.883428 0.457143c-1.590857 7.570286-0.621714 15.451429 2.779428 22.4 2.706286-7.350857 2.889143-15.396571 0.512-22.857143z m-2.541714 63.414857v0.822857l-0.457143-0.457142c-3.584 9.508571-7.478857 18.834286-11.977143 28.013714l0.768-0.438857v0.969143c8.704-3.328 17.590857-6.125714 26.642286-8.374858l-0.457143-0.365714h1.206857a129.938286 129.938286 0 0 1-15.725714-20.169143z m62.72 23.003429c-4.022857-0.182857-8.082286 0.182857-12.032 1.115428 4.260571 2.486857 9.014857 3.986286 13.915428 4.406858 3.108571 0.493714 6.290286 0.146286 9.216-1.042286-0.310857-1.718857-2.176-4.48-11.373714-4.48h0.292572z" fill="#FFFFFF" p-id="5599"></path></svg>