<?xml version="1.0" standalone="no"?><!DOCTYPE svg PUBLIC "-//W3C//DTD SVG 1.1//EN" "http://www.w3.org/Graphics/SVG/1.1/DTD/svg11.dtd"><svg t="1551421611085" class="icon" style="" viewBox="0 0 1024 1024" version="1.1" xmlns="http://www.w3.org/2000/svg" p-id="3231" xmlns:xlink="http://www.w3.org/1999/xlink" width="200" height="200"><defs><style type="text/css"></style></defs><path d="M0 0m73.142857 0l877.714286 0q73.142857 0 73.142857 73.142857l0 877.714286q0 73.142857-73.142857 73.142857l-877.714286 0q-73.142857 0-73.142857-73.142857l0-877.714286q0-73.142857 73.142857-73.142857Z" fill="#DA4F01" p-id="3232"></path><path d="M529.737143 186.514286h43.977143v68.608c82.907429 0.457143 165.888-0.841143 248.795428 0 8.356571-0.932571 16.694857 1.901714 22.564572 7.68 5.888 5.778286 8.630857 13.842286 7.460571 21.851428 1.353143 142.409143 0 284.891429 0.804572 427.373715-0.804571 15.414857 1.517714 32.457143-7.478858 46.262857-11.300571 7.698286-26.002286 7.003429-39.314285 7.698285-77.531429-0.365714-155.062857 0-232.758857 0v75.885715h-48.146286c-118.308571-20.900571-236.672-40.265143-354.980572-60.690286V247.643429c119.661714-20.352 239.323429-41.088 359.076572-61.147429zM294.656 390.509714c-0.987429 82.614857-0.822857 165.229714 0.402286 247.771429l47.049143 3.84v-90.678857c19.474286 0.694857 40.082286 1.883429 58.002285-7.113143 50.468571-24.137143 59.465143-98.468571 25.435429-138.971429-35.986286-31.414857-87.954286-12.8-130.889143-14.848z m274.523429-113.005714l0.182857 76.141714c12.672-2.688 25.380571-5.302857 38.162285-7.698285 1.042286 33.060571 0.64 66.194286 0.64 99.346285h102.217143c-2.578286 32.914286-18.084571 65.92-47.817143 83.254857-27.483429 18.102857-62.537143 18.340571-93.293714 9.014858v44.8h186.276572v30.043428H569.179429V650.971429H755.565714v30.445714H569.179429V742.4h256.182857V277.504h-256.182857z m57.014857 54.674286c56.630857 3.968 101.302857 46.848 104.301714 100.096-34.779429 0.384-69.540571 0-104.374857 0 0.073143-33.481143 0.073143-66.669714 0.073143-100.096z m-284.708572 100.736c16.932571-0.658286 37.961143-3.584 49.371429 11.337143 9.398857 16.548571 9.819429 36.150857 1.152 53.028571-9.801143 16.310857-31.981714 14.921143-49.170286 16.877714-1.773714-27.026286-1.609143-54.052571-1.334857-81.243428z" fill="#FFFFFF" p-id="3233"></path></svg>