<?xml version="1.0" standalone="no"?><!DOCTYPE svg PUBLIC "-//W3C//DTD SVG 1.1//EN" "http://www.w3.org/Graphics/SVG/1.1/DTD/svg11.dtd"><svg t="1548238039852" class="icon" style="" viewBox="0 0 1357 1024" version="1.1" xmlns="http://www.w3.org/2000/svg" p-id="6299" xmlns:xlink="http://www.w3.org/1999/xlink" width="265.0390625" height="200"><defs><style type="text/css"></style></defs><path d="M678.751188 99.568827L102.979094 952.558347h1151.544188L678.751188 99.568827z m29.612565-83.824873l642.974875 952.555371C1367.329651 992.017953 1350.350352 1024 1321.726063 1024H35.776313C7.152024 1024-9.839182 992.017953 6.163748 968.299325l642.974875-952.555371c14.169261-20.991939 45.055869-20.991939 59.22513 0zM678.751188 345.304299a35.720826 35.720826 0 0 1 35.720826 35.720826v285.766611a35.720826 35.720826 0 0 1-71.441652 0V381.025125a35.720826 35.720826 0 0 1 35.720826-35.720826z m0 476.277685a35.720826 35.720826 0 1 1 0-71.441653 35.720826 35.720826 0 0 1 0 71.441653z" fill="#EF3535" p-id="6300"></path></svg>