<?xml version="1.0" standalone="no"?><!DOCTYPE svg PUBLIC "-//W3C//DTD SVG 1.1//EN" "http://www.w3.org/Graphics/SVG/1.1/DTD/svg11.dtd"><svg t="1548224583240" class="icon" style="" viewBox="0 0 1024 1024" version="1.1" xmlns="http://www.w3.org/2000/svg" p-id="5927" xmlns:xlink="http://www.w3.org/1999/xlink" width="200" height="200"><defs><style type="text/css"></style></defs><path d="M0 0m73.142857 0l877.714286 0q73.142857 0 73.142857 73.142857l0 877.714286q0 73.142857-73.142857 73.142857l-877.714286 0q-73.142857 0-73.142857-73.142857l0-877.714286q0-73.142857 73.142857-73.142857Z" fill="#1D7044" p-id="5928"></path><path d="M678.729143 472.137143h108.434286v-66.230857h-108.434286v66.230857z m0 86.436571h108.434286V490.971429h-108.434286v67.584z m0-171.611428h108.434286V320.749714h-108.434286v66.212572z m0 337.700571h108.434286v-67.565714h-108.434286v67.565714z m158.555428-471.405714H577.170286c-2.706286 0-5.430857 0-8.137143 1.353143V183.076571L182.857143 260.022857v522.733714l384.822857 75.611429v-68.845714c2.706286 1.353143 5.430857 1.353143 8.137143 1.353143h260.114286c13.568 0 23.076571-10.825143 23.076571-24.265143V277.540571a22.162286 22.162286 0 0 0-21.723429-24.283428zM443.062857 632.813714l-46.061714-2.706285-35.2-87.771429-37.924572 82.358857-43.355428-2.706286 55.570286-99.949714-50.139429-109.44 43.337143-2.706286 29.805714 82.377143h5.412572l32.493714-87.789714 46.08-2.706286-58.294857 116.114286 58.276571 114.925714z m387.456 128.292572H567.68V724.662857h88.064v-67.565714h-88.064v-14.884572h88.064v-66.230857h-88.064v-17.590857h88.064v-67.565714h-88.064v-18.944h88.064v-66.212572h-88.064v-17.590857h88.064V321.828571h-88.064V284.050286h262.820571v477.074285z m-151.771428-118.820572h108.434285v-66.194285h-108.434285v66.194285z" fill="#FFFFFF" p-id="5929"></path></svg>